<mxfile host="app.diagrams.net" modified="2024-02-10T00:14:18.993Z" agent="Mozilla/5.0 (X11; Linux x86_64; rv:122.0) Gecko/20100101 Firefox/122.0" etag="6jBpzSKmY3fx0Tg2-etg" version="23.1.2" type="device">
  <diagram name="Page-1" id="sBxvztEv-x4pa-jCd_Ju">
    <mxGraphModel dx="865" dy="446" grid="1" gridSize="10" guides="1" tooltips="1" connect="1" arrows="1" fold="1" page="1" pageScale="1" pageWidth="827" pageHeight="1169" math="0" shadow="0">
      <root>
        <mxCell id="0" />
        <mxCell id="1" parent="0" />
        <mxCell id="-hWZo0QVJpovweGlM08w-5" value="&lt;b&gt;Press&lt;/b&gt;" style="triangle;whiteSpace=wrap;html=1;fillColor=#0050ef;fontColor=#ffffff;strokeColor=#001DBC;" parent="1" vertex="1">
          <mxGeometry x="290" y="80" width="60" height="80" as="geometry" />
        </mxCell>
        <mxCell id="-hWZo0QVJpovweGlM08w-6" value="&lt;b&gt;Press&lt;/b&gt;" style="triangle;whiteSpace=wrap;html=1;fillColor=#0050ef;fontColor=#ffffff;strokeColor=#001DBC;" parent="1" vertex="1">
          <mxGeometry x="610" y="80" width="60" height="80" as="geometry" />
        </mxCell>
        <mxCell id="uTqR0olXZD3r0W3IPvJW-1" value="" style="shape=image;verticalLabelPosition=bottom;labelBackgroundColor=default;verticalAlign=top;aspect=fixed;imageAspect=0;image=data:image/png,iVBORw0KGgoAAAANSUhEUgAABVYAAAMACAIAAABAXKuVAAAAA3NCSVQICAjb4U/gAAAAGXRFWHRTb2Z0d2FyZQBnbm9tZS1zY3JlZW5zaG907wO/PgAAEspJREFUeJzt2ltu6kgARdFLiklk/uMsqf9bN6bVhVM2e61vHgdjHGXLj+/v7z8AAADAp/vaPQAAAAD4DRIAAAAAJEgAAAAAkCABAAAAQIIEAAAAAAkSAAAAACRIAAAAAJAgAQAAAECCBAAAAAAJEgAAAAAkSAAAAACQIAEAAABAggQAAAAACRIAAAAAJEgAAAAAkCABAAAAQIIEAAAAAAkSAAAAACRIAAAAAJAgAQAAAECCBAAAAAAJEgAAAAAkSAAAAACQIAEAAABAggQAAAAACRIAAAAAJEgAAAAAkCABAAAAQIIEAAAAAAkSAAAAACRIAAAAAJAgAQAAAECCBAAAAAAJEgAAAAAkSAAAAACQIAEAAABAggQAAAAACRIAAAAAJEgAAAAAkCABAAAAQIIEAAAAAAkSAAAAAAAAAAAAAAAAAAAAAAAAAAAAAAAAAAAAAAAAAAAAAAAAAAAAAAAAAAAAAAAAAAAAAAAAAAAAAAAAAAAAAAAAAAAAAAAAAAAAAAAAAAAAAAAAAAAAAAAAAAAAAAAAAAAAAAAAAAAAAAAAAAAAAAAAAAAAAAAAAAAAAAAAAAAAAAAAAAAAAAAAAAAAAAAAAAAAAAAAAAAAAAAAAAAAAAAAAAAAAAAAAAAAAAAAAAAAAAAAAAAAAAAAAAAAAAAAAAAAAAAAAAAAAAAAAAAAAAAAAAAAAAAAAAAAAAAAAAAAAAAAAAAAAAAAAAAAAAAAAAAAAAAAAAAAAAAAAAAAAAAAAAAAAAAAAAAAAAAAAAAAAAAAAAAAAAAAAAAAAAAAAAAAAAAAAAAAAAAAAAAAAAAAAAAAAAAAAAAAAAAAAAAAAAAAAAAAAAAAAAAAAAAAAAAAAAAA53jMOXdvAAAAAFaNMY4f8PU7OwAAAIC9JAAAAABIkAAAAAAgQQIAAACABAkAAAAAEiQAAAAASJAAAAAAIEECAAAAgAQJAAAAABIkAAAAAAAAAAAAAAAAAAAAAAAAAAAAAAAAAAAAAAAAAAAAAAAAAAAAAAAAAAAAAAAA7uLx8hFzzl/Y8ZMxxvED9s778x8WLrr48Wevl6fH9vNz7wAnMLe2/fcVd/bfX18f8BP/4Oy9Qn788f869dUBAACAi5AAAAAAIEECAAAAgAQJAAAAABIkAAAAAEiQAAAAACBBAgAAAIAECQAAAAASJAAAAABIeC4+f4zxlh3nOXvhnPPUd9+7n7iXp8f2K8D2AfC/rf++Fv8AXf8HfqrtH3/7AOC+Ln592P4HbtH26//Z3AUAAAAACRIAAAAAJEgAAAAAkCABAAAAQIIEAAAAAAkSAAAAACRIAAAAAJAgAQAAAECCBAAAAAAJEgAAAAAkPHcPALaZcx4/YIzxO0t+8nLhsbvvX7d4BO6+/+LWP93xK1z/Bx539s/z7O/37AF3v/7cfT8cOz7D/YG7OHcBAAAAQIIEAAAAAAkSAAAAACRIAAAAAJAgAQAAAECCBAAAAAAJEgAAAAAkSAAAAACQIAEAAABAggQAAAAACc/dA0435zz19ccYp74+rDg+/69/9r5cePYPfPHdL36E776fY74+ruzu15+77wfK3AUAAAAACRIAAAAAJEgAAAAAkCABAAAAQIIEAAAAAAkSAAAAACRIAAAAAJAgAQAAAECCBAAAAAAJz90DTjfGOPX155wb3x2OHZ+Bx2fvy6fz8vi8PMJnD1h8+sX3A/d19+vP3ffDqc4+/1nkLgAAAABIkAAAAAAgQQIAAACABAkAAAAAEiQAAAAASJAAAAAAIEECAAAAgAQJAAAAABIkAAAAAEiQAAAAACDhuXsAsM0Y4/gBc87FV4g7+/ic/QXdfT9c2cXP/5fzznb368/d98OK7ec/x9wFAAAAAAkSAAAAACRIAAAAAJAgAQAAAECCBAAAAAAJEgAAAAAkSAAAAACQIAEAAABAggQAAAAACRIAAAAAJDwXnz/nfMuOn4wxFl/h+guPnb0fDrw8vV+en4s/kMXz/+Lz1sX3w4r169vZAxafvrj/7Ne/+/Xn7vu5u4tfoO5u+w/8bO4CAAAAgAQJAAAAABIkAAAAAEiQAAAAACBBAgAAAIAECQAAAAASJAAAAABIkAAAAAAgQQIAAAAAAAAAAAAAAAAAAAAAAAAAAAAAAAAAAAAAAAAAAAAAAAAAAAAAAAAAAAAAAOAuHnPO3RsAAACAVWOM4wd8/c4OAAAAYC8JAAAAABIkAAAAAEiQAAAAACBBAgAAAIAECQAAAAASJAAAAABIkAAAAAAgQQIAAACABAkAAAAAAAAAAAAAAAAAAAAAAAAAAAAAAAAAAAAAAAAAAAAAAAAAAAAAAAAAAAAAAAAAAAAAAAAAAAAAAAAAAAAAAAAAAAAAAAAAAAAAAAAAAAAAAAAAAAAAAAAAAAAAAAAAAAAAAAAAAAAAAAAAAAAAAAAAAAAAAAAAAAAAAAAAAAAAAAAAAAAAAAAAAAAAAAAAAAAAAAAAAAAAAAAAAAAAAAAAAAAAAAAAAAAAAAAAAAAAAAAAAAAAAAAAAAAAAAAAAAAAAAAAAAAAAAAAAAAAAAAAAAAAAAAAAAAAAAAAAAAAAAAAAAAAAAAAAAAAAAAAAAAAAAAAAAAAAAAAAAAAAAAAAAAAAAAAAAAAAAAAAAAAAAAAAAAAAAAAAAAAAAAAAAAAAAAAAAAAAAAAAAAAAAAAAAAAAAAAAAAAAAAAAAAAAAAAAAAAAAAAAAAAAAAAAAAAAAAAAAAAAAAAAAAAAAAAAAAAAAAAAAAAAAAAAAAAAAAAAAAAAAAAAAAAAAAA4EeP3QMAuKg55+4JaWOM3RMAgE/ztXsAAAAA8BskAAAAAEiQAAAAACBBAgAAAIAECQAAAAASJAAAAABIkAAAAAAgQQIAAACABAkAAAAAEiQAAAAASJAAAAAAIEECAAAAgAQJAAAAABIkAAAAAEiQAAAAACBBAgAAAIAECQAAAAASJAAAAABIkAAAAAAgQQIAAACAhMfuAQCcZc65ewLbjDF2TwAALsddAAAAAJAgAQAAAECCBAAAAAAJEgAAAAAkSAAAAACQIAEAAABAggQAAAAACRIAAAAAJEgAAAAAkCABAAAAQIIEAAAAAAkSAAAAACRIAAAAAJAgAQAAAECCBAAAAAAJEgAAAAAkSAAAAACQIAEAAABAggQAAAAACRIAAAAAJDx2DwDg7+acuyeQNsbYPQEAeDN3AQAAAECCBAAAAAAJEgAAAAAkSAAAAACQIAEAAABAggQAAAAACRIAAAAAJEgAAAAAkCABAAAAQIIEAAAAAAkSAAAAACRIAAAAAJAgAQAAAECCBAAAAAAJEgAAAAAkSAAAAACQIAEAAABAggQAAAAACRIAAAAAJEgAAAAAkCABAAAAQMJz9wAAzjLG2Pjuc86N7/5n98f/c4EjAADwL+4CAAAAgAQJAAAAABIkAAAAAEiQAAAAACBBAgAAAIAECQAAAAASJAAAAABIkAAAAAAgQQIAAACABAkAAAAAEiQAAAAASJAAAAAAIEECAAAAgAQJAAAAABIkAAAAAEiQAAAAACBBAgAAAIAECQAAAAASJAAAAABIkAAAAAAg4bl7AMDHmnPungD/3+IJPMZ41xIA4F3cBQAAAAAJEgAAAAAkSAAAAACQIAEAAABAggQAAAAACRIAAAAAJEgAAAAAkCABAAAAQIIEAAAAAAkSAAAAACRIAAAAAJAgAQAAAECCBAAAAAAJEgAAAAAkSAAAAACQIAEAAABAggQAAAAACRIAAAAAJEgAAAAAkCABAAAAQIIEAAAAAAnP3QMAuKg55+4JSxb3jzHetaTJ8QeAC3IXAAAAACRIAAAAAJAgAQAAAECCBAAAAAAJEgAAAAAkSAAAAACQIAEAAABAggQAAAAACRIAAAAAJEgAAAAAkCABAAAAQIIEAAAAAAkSAAAAACRIAAAAAJAgAQAAAECCBAAAAAAJEgAAAAAkSAAAAACQIAEAAABAggQAAAAACY/dAwA+1pxz94Sdxhh7B8SPP9vPQAC4IHcBAAAAQIIEAAAAAAkSAAAAACRIAAAAAJAgAQAAAECCBAAAAAAJEgAAAAAkSAAAAACQIAEAAABAggQAAAAACRIAAAAAJEgAAAAAkCABAAAAQIIEAAAAAAkSAAAAACRIAAAAAJAgAQAAAECCBAAAAAAJEgAAAAAkSAAAAACQ8Nw9AICLGmPsnrBkcf+c811Lmhx/ALggdwEAAABAggQAAAAACRIAAAAAJEgAAAAAkCABAAAAQIIEAAAAAAkSAAAAACRIAAAAAJAgAQAAAECCBAAAAAAJEgAAAAAkSAAAAACQIAEAAABAggQAAAAACRIAAAAAJEgAAAAAkCABAAAAQIIEAAAAAAkSAAAAACRIAAAAAJAgAQAAAEDCc/cAAD7TnHPxFcYYb1nCFosngG8fAM7gLgAAAABIkAAAAAAgQQIAAACABAkAAAAAEiQAAAAASJAAAAAAIEECAAAAgAQJAAAAABIkAAAAAEiQAAAAACBBAgAAAIAECQAAAAASJAAAAABIkAAAAAAgQQIAAACABAkAAAAAEiQAAAAASJAAAAAAIEECAAAAgAQJAAAAABIeuwcA8Hdzzt0T4MbGGLsnAMDluAsAAAAAEiQAAAAASJAAAAAAIEECAAAAgAQJAAAAABIkAAAAAEiQAAAAACBBAgAAAIAECQAAAAASJAAAAABIkAAAAAAgQQIAAACABAkAAAAAEiQAAAAASJAAAAAAIEECAAAAgAQJAAAAABIkAAAAAEiQAAAAACBBAgAAAICEx+4BAJxlzrl7AtuMMRZf4e7nz/oRAIDP4y4AAAAASJAAAAAAIEECAAAAgAQJAAAAABIkAAAAAEiQAAAAACBBAgAAAIAECQAAAAASJAAAAABIkAAAAAAgQQIAAACABAkAAAAAEiQAAAAASJAAAAAAIEECAAAAgAQJAAAAABIkAAAAAEiQAAAAACBBAgAAAIAECQAAAAASJAAAAABIeO4eAAB/N8ZYefqc811L7mj94zv+APB53AUAAAAACRIAAAAAJEgAAAAAkCABAAAAQIIEAAAAAAkSAAAAACRIAAAAAJAgAQAAAECCBAAAAAAJEgAAAAAkSAAAAACQIAEAAABAggQAAAAACRIAAAAAJEgAAAAAkCABAAAAQIIEAAAAAAkSAAAAACRIAAAAAJAgAQAAAEDCY/cAAC5qzrl7wpIxxsrT7/7x1y0eQADggtwFAAAAAAkSAAAAACRIAAAAAJAgAQAAAECCBAAAAAAJEgAAAAAkSAAAAACQIAEAAABAggQAAAAACRIAAAAAJEgAAAAAkCABAAAAQIIEAAAAAAkSAAAAACRIAAAAAJAgAQAAAECCBAAAAAAJEgAAAAAkSAAAAACQIAEAAABAwmP3AAA+05xz74Axxt4Be4/A9o8PAFyQuwAAAAAgQQIAAACABAkAAAAAEiQAAAAASJAAAAAAIEECAAAAgAQJAAAAABIkAAAAAEiQAAAAACBBAgAAAIAECQAAAAASJAAAAABIkAAAAAAgQQIAAACABAkAAAAAEiQAAAAASJAAAAAAIEECAAAAgAQJAAAAABIkAAAAAEiQAAAAAAAAAAAAAAAAAAAAAAAAAAAAAAAAAAAAAAAAAAAAAAAAAAAAAAAAAAAAAAAAAAAAAAAAAAAAAAAAAAAAAAAAAAAAAAAAAAAAAAAAAAAAAAAAAAAAAAAAAAAAAAAAAAAAAAAAAAAAAAAAAAAAAAAAAAAAAAAAAAAAAAAAAAAAAAAAAAAAAAAAAAAAAAAAAAAAAAAAAAAAAAAAAAAAAAAAAAAAAAAAAAAAAAAAAAAAAAAAAAAAAAAAAAAAAAAAAAAAAAAAAAAAAAAAAAAAAAAAAAAAAAAAAAAAAAAAAAAAAAAAAAAAAAAAAAAAAAAAAAAAAAAAAAAAAAAAAAAAAAAAAAAAAAAAAAAAAAAAAAAAAAAAAAAAAAAAAAAAAAAAAAAAAAAAAAAAAAAAAAAAAAAAAAAAAAAAAAAAAAAAAAAAAAAAAAAAAAAAAAAAAAAAAAAAAAAAOMfj+/t79wYAAADgdF+7BwAAAAC/QQIAAACABAkAAAAAEiQAAAAASJAAAAAAIEECAAAAgAQJAAAAABIkAAAAAEiQAAAAACBBAgAAAIAECQAAAAASJAAAAABIkAAAAAAgQQIAAACABAkAAAAAEiQAAAAASJAAAAAAIEECAAAAgAQJAAAAABIkAAAAAEiQAAAAACBBAgAAAIAECQAAAAASJAAAAABIkAAAAAAgQQIAAACABAkAAAAAEiQAAAAASJAAAAAAIEECAAAAgAQJAAAAABIkAAAAAEiQAAAAACBBAgAAAIAECQAAAAASJAAAAABIkAAAAAAgQQIAAACABAkAAAAAEiQAAAAASJAAAAAAIOEf5sYq+EzDUh4AAAAASUVORK5CYII=;" vertex="1" parent="1">
          <mxGeometry x="360" y="55" width="231.23" height="130" as="geometry" />
        </mxCell>
        <mxCell id="uTqR0olXZD3r0W3IPvJW-3" value="" style="shape=image;verticalLabelPosition=bottom;labelBackgroundColor=default;verticalAlign=top;aspect=fixed;imageAspect=0;image=data:image/png,iVBORw0KGgoAAAANSUhEUgAAB4AAAAQ4CAIAAABnsVYUAAAAA3NCSVQICAjb4U/gAAAAGXRFWHRTb2Z0d2FyZQBnbm9tZS1zY3JlZW5zaG907wO/PgAAIABJREFUeJzs2jFuG0EQRUHZvanvf9oGnDhwoMCC9ThcsuoAgw+KS1IP8+PXr18fAAAAAADw3X6eHgAAAAAAwGsSoAEAAAAASAjQAAAAAAAkBGgAAAAAABICNAAAAAAACQEaAAAAAICEAA0AAAAAQEKABgAAAAAgIUADAAAAAJAQoAEAAAAASAjQAAAAAAAkBGgAAAAAABICNAAAAAAACQEaAAAAAICEAA0AAAAAQEKABgAAAAAgIUADAAAAAJAQoAEAAAAASAjQAAAAAAAkBGgAAAAAABICNAAAAAAACQEaAAAAAICEAA0AAAAAQEKABgAAAAAgIUADAAAAAJAQoAEAAAAASAjQAAAAAAAkBGgAAAAAABICNAAAAAAACQEaAAAAAICEAA0AAAAAQEKABgAAAAAgIUADAAAAAJAQoAEAAAAASAjQAAAAAAAkBGgAAAAAABICNAAAAAAACQEaAAAAAICEAA0AAAAAQEKABgAAAAAgIUADAAAAAJAQoAEAAAAASAjQAAAAAAAkBGgAAAAAABICNAAAAAAACQEaAAAAAICEAA0AAAAAQEKABgAAAAAgIUADAAAAAJAQoAEAAAAASAjQAAAAAAAkBGgAAAAAABICNAAAAAAACQEaAAAAAICEAA0AAAAAQEKABgAAAAAgIUADAAAAAJAQoAEAAAAASAjQAAAAAAAAAAAAAAAAAAAAAAAAAAAAAAAAAAAAAAAAAAAAAAAAAAAAAAAAAAAAAAAAAAAAAAAAAAAAAAAAAAAAAAAAAAAAAAAAAAAAAAAAAAAAAAAAAAAAAADf48fpAQAAANzA7p6eAADHzMzpCXf18/QAAAAAAABekwANAAAAAEBCgAYAAAAAICFAAwAAAACQEKABAAAAAEgI0AAAAAAAJARoAAAAAAASAjQAAAAAAAkBGgAAAACAhAANAAAAAEBCgAYAAAAAICFAAwAAAACQEKABAAAAAEgI0AAAAAAAJARoAAAAAAASAjQAAAAAAAkBGgAAAACAhAANAAAAAEBCgAYAAAAAICFAAwAAAACQEKABAAAAAEgI0AAAAAAAJARoAAAAAAASAjQAAAAAAAkBGgAAAACAhAANAAAAAEBCgAYAAAAAICFAAwAAAACQEKABAAAAAEgI0AAAAAAAJARoAAAAAAASAjQAAAAAAAkBGgAAAACAhAANAAAAAEBCgAYAAAAAICFAAwAAAACQEKABAAAAAEgI0AAAAAAAJARoAAAAAAASAjQAAAAAAAkBGgAAAACAhAANAAAAAEBCgAYAAAAAICFAAwAAAACQuE4PAAAAgH81M6cnAPBQu3t6Av/FDWgAAAAAABICNAAAAAAACQEaAAAAAICEAA0AAAAAQEKABgAAAAAgIUADAAAAAJAQoAEAAAAASAjQAAAAAAAkBGgAAAAAABICNAAAAAAACQEaAAAAAICEAA0AAAAAQEKABgAAAAAgIUADAAAAAJC4Tg8AAAB4O7t7egIA8AV3/O6emdMTPj7cgAYAAAAAICJAAwAAAACQEKABAAAAAEgI0AAAAAAAJARoAAAAAAASAjQAAAAAAAkBGgAAAACAhAANAAAAAEBCgAYAAAAAICFAAwAAAACQEKABAAAAAEgI0AAAAAAAJARoAAAAAAASAjQAAAAAAAkBGgAAAACAhAANAAAAAEBCgAYAAAAAICFAAwAAAACQEKABAAAAAEgI0AAAAAAAJARoAAAAAAASAjQAAAAAAAkBGgAAAACAhAANAAAAAEBCgAYAAAAAICFAAwAAAACQEKABAAAAAEgI0AAAAAAAJARoAAAAAAASAjQAAAAAAAkBGgAAAACAhAANAAAAAEBCgAYAAAAAICFAAwAAAACQEKABAAAAAEgI0AAAAAAAJARoAAAAAAASAjQAAAAAAAkBGgAAAACAhAANAAAAAEBCgAYAAAAAICFAAwAAAACQEKABAAAAAEgI0AAAAAAAJK7TAwAeYXdPT3gLM3N6Ak/KM/gYnkHgq3xuAPD87vht5T+gv7kBDQAAAABAQoAGAAAAACAhQAMAAAAAkBCgAQAAAABICNAAAAAAACQEaAAAAAAAEgI0AAAAAAAJARoAAAAAgIQADQAAAABAQoAGAAAAACAhQAMAAAAAkBCgAQAAAABICNAAAAAAACQEaAAAAAAAEgI0AAAAAAAJARoAAAAAgIQADQAAAABAQoAGAAAAACAhQAMAAAAAkBCgAQAAAABICNAAAAAAACQEaAAAAAAAEgI0AAAAAAAJARoAAAAAgIQADQAAAABAQoAGAAAAACAhQAMAAAAAkBCgAQAAAABICNAAAAAAACQEaAAAAAAAEgI0AAAAAAAJARoAAAAAgIQADQAAAABAQoAGAAAAACAhQAMAAAAAkBCgAQAAAABICNAAAAAAACQEaAAAAAAAEgI0AAAAAAAJARoAAAAAgIQADQAAAABAQoAGAAAAACAhQAMAAAAAkBCgAQAAAABICNAAAAAAACQEaAAAAAAAEgI0AAAAAAAJARoAAAAAgIQADQAAAABAQoAGAAAAACAhQAMAAAAAkBCgAQAAAABICNAAAAAAACQEaAAAAAAAEgI0AAAAAAAJARoAAAAAgIQADQAAAABAQoAGAAAAACAhQAMAAAAAkLhODwDgczNzesKX7e7pCTwp72cAeGG+NHkld/zhCk/ODWgAAAAAABICNAAAAAAACQEaAAAAAICEAA0AAAAAQEKABgAAAAAgIUADAAAAAJAQoAEAAAAASAjQAAAAAAAkBGgAAAAAABICNAAAAAAACQEaAAAAAICEAA0AAAAAQEKABgAAAAAgIUADAAAAAJAQoAEAAAAASAjQAAAAAAAkBGgAAAAAABICNAAAAAAACQEaAAAAAICEAA0AAAAAQEKABgAAAAAgIUADAAAAAJAQoAEAAAAASAjQAAAAAAAkBGgAAAAAABICNAAAAAAACQEaAAAAAICEAA0AAAAAQEKABgAAAAAgcZ0eAAAAAOR29/QEuIHuSZmZ6GR4cm5AAwAAAACQEKABAAAAAEgI0AAAAAAAJARoAAAAAAASAjQAAAAAAAkBGgAAAACAhAANAAAAAEBCgAYAAAAAICFAAwAAAACQEKABAAAAAEgI0AAAAAAAJARoAAAAAAASAjQAAAAAAAkBGgAAAACAhAANAAAAAEBCgAYAAAAAICFAAwAAAACQEKABAAAAAEgI0AAAAAAAJARoAAAAAAASAjQAAAAAAAkBGgAAAACAhAANAAAAAEBCgAYAAAAAICFAAwAAAACQEKABAAAAAEgI0AAAAAAAJARoAAAAAAASAjQAAAAAAInr9AAAXsfMnJ4AAHBvu3t6ApDonm7/iPHk3IAGAAAAACAhQAMAAAAAkBCgAQAAAABICNAAAAAAACQEaAAAAAAAEgI0AAAAAAAJARoAAAAAgIQADQAAAABAQoAGAAAAACAhQAMAAAAAkBCgAQAAAABICNAAAAAAACQEaAAAAAAAEgI0AAAAAAAJARoAAAAAgIQADQAAAABAQoAGAAAAACAhQAMAAAAAkBCgAQAAAABICNAAAAAAACQEaAAAAAAAEgI0AAAAAAAJARoAAAAAgIQADQAAAABAQoAGAAAAACAhQAMAAAAAkBCgAQAAAABICNAAAAAAACQEaAAAAAAAEtfpAQAAAHAzu3t6AsAf3SfSzEQn81bcgAYAAAAAICFAAwAAAACQEKABAAAAAEgI0AAAAAAAJARoAAAAAAASAjQAAAAAAAkBGgAAAACAhAANAAAAAEBCgAYAAAAAICFAAwAAAACQEKABAAAAAEgI0AAAAAAAJARoAAAAAAASAjQAAAAAAAkBGgAAAACAhAANAAAAAEBCgAYAAAAAICFAAwAAAACQEKABAAAAAEgI0AAAAAAAJARoAAAAAAASAjQAAAAAAAkBGgAAAACAhAANAAAAAEBCgAYAAAAAICFAAwAAAACQEKABAAAAAEgI0AAAAAAAJARoAAAAAAAS1+kBALyO3T094ctm5vSEt3DH9wYAcFz3U82Pk8fwFwQ+3IAGAAAAACAiQAMAAAAAkBCgAQAAAABICNAAAAAAACQEaAAAAAAAEgI0AAAAAAAJARoAAAAAgIQADQAAAABAQoAGAAAAACAhQAMAAAAAkBCgAQAAAABICNAAAAAAACQEaAAAAAAAEgI0AAAAAAAJARoAAAAAgIQADQAAAABAQoAGAAAAACAhQAMAAAAAkBCgAQAAAABICNAAAAAAACQEaAAAAAAAEgI0AAAAAAAJARoAAAAAgIQADQAAAABAQoAGAAAAACAhQAMAAAAAkBCgAQAAAABICNAAAAAAACQEaAAAAAAAEgI0AAAAAAAJARoAAAAAgIQADQAAAABAQoAGAAAAACAhQAMAAAAAkBCgAQAAAABICNAAAAAAACQEaAAAAAAAEgI0AAAAAAAJARoAAAAAgIQADQAAAABAQoAGAAAAACAhQAMAAAAAkBCgAQAAAABICNAAAAAAACQEaAAAAAAAEgI0AAAAAAAJARoAAAAAgIQADQAAAABAQoAGAAAAACAhQAMAAAAAkBCgAQAAAABICNAAAAAAACQEaAAAAAAAEgI0AAAAAAAJARoAAAAAgIQADQAAAABAQoAGAAAAACAhQAMAAAAAkBCgAQAAAABIXKcHAPA6Zub0BJ7UHd8bu3t6AgAAwO25AQ0AAAAAQEKABgAAAAAgIUADAAAAAJAQoAEAAAAASAjQAAAAAAAkBGgAAAAAABICNAAAAAAACQEaAAAAAICEAA0AAAAAQEKABgAAAAAgIUADAAAAAJAQoAEAAAAASAjQAAAAAAAkBGgAAAAAABLX6QEAAAD/ZXdPTwAA4HNuQAMAAAAAkBCgAQAAAABICNAAAAAAACQEaAAAAAAAEgI0AAAAAAAJARoAAAAAgIQADQAAAABAQoAGAAAAACAhQAMAAAAAkBCgAQAAAABICNAAAAAAACQEaAAAAAAAEgI0AAAAAAAJARoAAAAAgMR1egAAAADAJ3b39AT+i78g8OEGNAAAAAAAEQEaAAAAAICEAA0AAAAAQEKABgAAAAAgIUADAAAAAJAQoAEAAAAASAjQAAAAAAAkBGgAAAAAABICNAAAAAAACQEaAAAAAICEAA0AAAAAQEKABgAAAAAgIUADAAAAAJAQoAEAAAAASAjQAAAAAAAkBGgAAAAAABICNAAAAAAACQEaAAAAAICEAA0AAAAAQEKABgAAAAAgIUADAAAAAJAQoAEAAAAASAjQAAAAAAAkBGgAAAAAABICNAAAAAAACQEaAAAAAICEAA0AAAAAQEKABgAAAAAgIUADAAAAAJC4Tg8AAAAAeKiZiU7e3ejkjlcDSLkBDQAAAABAQoAGAAAAACAhQAMAAAAAkBCgAQAAAABICNAAAAAAACQEaAAAAAAAEgI0AAAAAAAJARoAAAAAgIQADQAAAABAQoAGAAAAACAhQAMAAAAAkBCgAQAAAABICNAAAAAAACQEaAAAAAAAEtfpAQAAwBPZ3dMTAAB4HW5AAwAAAACQEKABAAAAAEgI0AAAAAAAJARoAAAAAAASAjQAAAAAAAkBGgAAAACAhAANAAAAAEBCgAYAAAAAICFAAwAAAACQEKABAAAAAEgI0AAAAAAAJARoAAAAAAASAjQAAAAAAAkBGgAAAACAxHV6AAAAAMBD7W508sxEJ3e6VwPgww1oAAAAAAAiAjQAAAAAAAkBGgAAAACAhAANAAAAAEBCgAYAAAAAICFAAwAAAACQEKABAAAAAEgI0AAAAAAAJARoAAAAAAASAjQAAAAAAAkBGgAAAACAhAANAAAAAEBCgAYAAAAAICFAAwAAAACQEKABAAAAAEgI0AAAAAAAJARoAAAAAAASAjQAAAAAAAkBGgAAAACAhAANAAAAAEBCgAYAAAAAICFAAwAAAACQEKABAAAAAEgI0AAAAAAAJARoAAAAAAASAjQAAAAAAAkBGgAAAACAhAANAAAAAEBCgAYAAAAAIHGdHgDcz+6envBlM3N6Arw1nxsAwJu4488egJQb0AAAAAAAJARoAAAAAAASAjQAAAAAAAkBGgAAAACAhAANAAAAAEBCgAYAAAAAICFAAwAAAACQEKABAAAAAEgI0AAAAAAAJARoAAAAAAASAjQAAAAAAAkBGgAAAACAhAANAAAAAEBCgAYAAAAAIHGdHgAAADyRmTk94S3s7ukJAACP4AY0AAAAAAAJARoAAAAAgIQADQAAAABAQoAGAAAAACAhQAMAAAAAkBCgAQAAAABICNAAAAAAACQEaAAAAAAAEgI0AAAAAAAJARoAAAAAgIQADQAAAABAQoAGAAAAACAhQAMAAAAAkBCgAQAAAABIXKcHAAAAwM3MTHTy7kYnA6+q+0SCb+EGNAAAAAAACQEaAAAAAICEAA0AAAAAQEKABgAAAAAgIUADAAAAAJAQoAEAAAAASAjQAAAAAAAkBGgAAAAAABICNAAAAAAACQEaAAAAAICEAA0AAAAAQEKABgAAAAAgIUADAAAAAJAQoAEAAAAASAjQAAAAAAAkBGgAAAAAABICNAAAAAAACQEaAAAAAICEAA0AAAAAQEKABgAAAAAgIUADAAAAAJAQoAEAAAAASAjQAAAAAAAkBGgAAAAAABICNAAAAAAACQEaAAAAAICEAA0AAAAAQEKABgAAAAAgIUADAAAAAJC4Tg8AAAAA/piZ6OTdjU4G/kX3dMOTcwMaAAAAAICEAA0AAAAAQEKABgAAAAAgIUADAAAAAJAQoAEAAAAASAjQAAAAAAAkBGgAAAAAABICNAAAAAAACQEaAAAAAICEAA0AAAAAQEKABgAAAAAgIUADAAAAAJAQoAEAAAAASAjQAAAAAAAkBGgAAAAAABICNAAAAAAACQEaAAAAAICEAA0AAAAAQEKABgAAAAAgIUADAAAAAJAQoAEAAAAASAjQAAAAAAAkBGgAAAAAABICNAAAAAAACQEaAAAAAICEAA0AAAAAQEKABgAAAAAgIUADAAAAAJAQoAEAAAAASFynBwAAAAC5mYlO3t3oZHi87kmBt+UGNAAAAAAACQEaAAAAAICEAA0AAAAAQEKABgAAAAAgIUADAAAAAJAQoAEAAAAASAjQAAAAAAAkBGgAAAAAABICNAAAAAAACQEaAAAAAICEAA0AAAAAQEKABgAAAAAgIUADAAAAAJAQoAEAAAAASAjQAAAAAAAkBGgAAAAAABICNAAAAAAACQEaAAAAAICEAA0AAAAAQEKABgAAAAAgIUADAAAAAJAQoAEAAAAASAjQAAAAAAAkBGgAAAAAABICNAAAAAAACQEaAAAAAICEAA0AAAAAQEKABgAAAAAgIUADAAAAAJC4Tg+A77S7pycAAAC8l5k5PQGA5+UGNAAAAAAACQEaAAAAAICEAA0AAAAAQEKABgAAAAAgIUADAAAAAJAQoAEAAAAASAjQAAAAAAAkBGgAAAAAABICNAAAAAAACQEaAAAAAICEAA0AAAAAQEKABgAAAAAgIUADAAAAAJAQoAEAAAAASAjQAAAAAAAkBGgAAAAAABICNAAAAAAACQEaAAAAAICEAA0AAAAAQEKABgAAAAAgIUADAAAAAJAQoAEAAAAASAjQAAAAAAAkBGgAAAAAABICNAAAAAAACQEaAAAAAICEAA0AAAAAQEKABgAAAAAgIUADAAAAAJC4Tg8AAADgjN09PeHLZub0BAAe6o7fVvzNDWgAAAAAABICNAAAAAAACQEaAAAAAICEAA0AAAAAQEKABgAAAAAgIUADAAAAAJAQoAEAAAAASAjQAAAAAAAkBGgAAAAAABICNAAAAAAACQEaAAAAAICEAA0AAAAAQEKABn63awcpjgNRFATtKW37/qf90PuBAYue7LLkiLURT4VBkBQAAAAAJARoAAAAAAASAjQAAAAAAAkBGgAAAACAhAANAAAAAEBCgAYAAAAAICFAAwAAAACQEKABAAAAAEgI0AAAAAAAJARoAAAAAAASAjQAAAAAAAkBGgAAAACAhAANAAAAAEBCgAYAAAAAICFAAwAAAACQEKABAAAAAEgI0AAAAAAAJI7dA3hfM7N7wmlrrd0TTnPO3In/8+9wzr/DOQMAAPycG9AAAAAAACQEaAAAAAAAEgI0AAAAAAAJARoAAAAAgIQADQAAAABAQoAGAAAAACAhQAMAAAAAkBCgAQAAAABICNAAAAAAACQEaAAAAAAAEgI0AAAAAAAJARoAAAAAgIQADQAAAABAQoAGAAAAACBx7B4AAADwcdZauyecNjO7JwDANlf8dr8JN6ABAAAAAEgI0AAAAAAAJARoAAAAAAASAjQAAAAAAAkBGgAAAACAhAANAAAAAEBCgAYAAAAAICFAAwAAAACQEKABAAAAAEgI0AAAAAAAJARoAAAAAAASAjQAAAAAAAkBGgAAAACAhAANAAAAAEDi2D0AAAAAXjUzuycAACe4AQ0AAAAAQEKABgAAAAAgIUADAAAAAJAQoAEAAAAASAjQAAAAAAAkBGgAAAAAABICNAAAAAAACQEaAAAAAICEAA0AAAAAQEKABgAAAAAgIUADAAAAAJAQoAEAAAAASAjQAAAAAAAkBGgAAAAAABICNAAAAAAACQEaAAAAAICEAA0AAAAAQEKABgAAAAAgIUADAAAAAJAQoAEAAAAASAjQAAAAAAAkBGgAAAAAABICNAAAAAAACQEaAAAAAICEAA0AAAAAQEKABgAAAAAgIUADAAAAAJAQoAEAAAAASAjQAAAAAAAkjt0DPsXM7J5w2lpr94TTrnjOAAAAAHBXbkADAAAAAJAQoAEAAAAASAjQAAAAAAAkBGgAAAAAABICNAAAAAAACQEaAAAAAICEAA0AAAAAQEKABgAAAAAgIUADAAAAAJAQoAEAAAAASAjQAAAAAAAkBGgAAAAAABICNAAAAAAACQEaAAAAAIDEsXsAAAAAF7DW2j0BALgeN6ABAAAAAEgI0AAAAAAAJARoAAAAAAASAjQAAAAAAAkBGgAAAACAhAANAAAAAEBCgAYAAAAAICFAAwAAAACQEKABAAAAAEgI0AAAAAAAJARoAAAAAAASAjQAAAAAAAkBGgAAAACAhAANAAAAAEBCgAYAAAAAICFAAwAAAACQEKABAAAAAEgI0AAAAAAAJARoAAAAAAASAjQAAAAAAAkBGgAAAACAhAANAAAAAEBCgAYAAAAAICFAAwAAAACQEKABAAAAAEgI0AAAAAAAJARoAAAAAAASAjQAAAAAAAkBGgAAAACAhAANAAAAAEBCgAYAAAAAICFAAwAAAACQEKABAAAAAEgI0AAAAAAAJARoAAAAAAASAjQAAAAAAAkBGgAAAACAhAANAAAAAEBCgAYAAAAAICFAAwAAAACQEKABAAAAAEgI0AAAAAAAJARoAAAAAAASAjQAAAAAAInn7gGfYmZ2T/gIa63dE07z3wDgf7nidxAAALg3N6ABAAAAAEgI0AAAAAAAJARoAAAAAAASAjQAAAAAAAkBGgAAAACAhAANAAAAAEBCgAYAAAAAICFAAwAAAACQEKABAAAAAEgI0AAAAAAAJARoAAAAAAASAjQAAAAAAAkBGgAAAACAhAANAAAAAEBCgAYAAAAAICFAAwAAAACQEKABAAAAAEgI0AAAAAAAJARoAAAAAAASAjQAAAAAAAkBGgAAAACAhAANAAAAAEBCgAYAAAAAICFAAwAAAACQEKABAAAAAEgI0AAAAAAAJARoAAAAAAASAjQAAAAAAAkBGgAAAACAhAANAAAAAEBCgAYAAAAAICFAAwAAAACQEKABAAAAAEgI0AAAAAAAJARoAAAAAAASAjQAAAAAAAkBGgAAAACAhAANAAAAAEBCgAYAAAAAICFAAwAAAACQEKABAAAAAEgI0AAAAAAAJARoAAAAAAASAjQAAAAAAAkBGgAAAACAhAANAAAAAEBCgAYAAAAAICFAAwAAAACQEKABAAAAAEgI0AAAAAAAJARoAAAAAAASAjQAAAAAAAkBGgAAAACAhAANAAAAAEBCgAYAAAAAICFAAwAAAACQEKABAAAAAEgI0AAAAAAAJARoAAAAAAAAAAAAAAAAAAAAAAAAAAAAAAAAAAAAAAAAAAAAAAAAAAAAAAAAAAAAAAAAAAAAAAAAAAAAAAAAAAAAAAAAAAAAAAAAAAAAAAAAAAAAAAAAAAAAAAAAAAAAAAAAAAAAAAAAAAAAAAAAAAAAAAAAAAAAAAAAAAAAAAAAAAAAAAAAAAAAAAAAAAAAAAAAAAAAAAAAAAAAAAAAAAAAAAAAAAAAAAAAAAAAAAAAAAAAAAAAAAAAAAAAAAAAAAAAAAAAAAAAAAAAAAAAAAAAAAAAAAAAAAAAAAAAAAAAAAAAAAAAAAAAAAAAAAAAAAAAAAAAAAAAAAAAAAAAAAAAAAAAAAAAAAAAAAAAAAAAAAAAAAAAAAAAAAAAAAAAAAAAAAAAAAAAAAAAAAAAAAAAAAAAAAAAAAAAAAAAAAAAAAAAAAAAAAAAAAAAAAAAAAAAAAAAAP7puXsAAAAAFzAzr/94rdUtiXjBN3TFcwbgL392DwAAAAAA4J4EaAAAAAAAEgI0AAAAAAAJARoAAAAAgIQADQAAAABAQoAGAAAAACAhQAMAAAAAkBCgAQAAAABICNAAAAAAACQEaAAAAAAAEgI0AAAAAAAJARoAAAAAgIQADQAAAABAQoAGAAAAACBx7B4AAADA3czM7gmPx+Ox1oqefPsXPPXkNzkNAN6TG9AAAAAAACQEaAAAAAAAEgI0AAAAAAAJARoAAAAAgIQADQAAAABAQoAGAAAAACAhQAMAAAAAkBCgAQAAAABICNAAAAAAACQEaAAAAAAAEgI0AAAAAAAJARoAAAAAgIQADQAAAABAQoAGAAAAACBx7B4AAADA3ay1oiceYVaAAAAC40lEQVTPTPTkU27/gqecOo0rviAAP+EGNAAAAAAACQEaAAAAAICEAA0AAAAAQEKABgAAAAAgIUADAAAAAJAQoAEAAAAASAjQAAAAAAAkBGgAAAAAABICNAAAAAAACQEaAAAAAICEAA0AAAAAQEKABgAAAAAgIUADAAAAAJAQoAEAAAAASBy7BwAAAHA3M7N7QssLAsCL3IAGAAAAACAhQAMAAAAAkBCgAQAAAABICNAAAAAAACQEaAAAAAAAEgI0AAAAAAAJARoAAAAAgIQADQAAAABAQoAGAAAAACAhQAMAAAAAkBCgAQAAAABICNAAAAAAACQEaAAAAAAAEgI0AAAAAACJ59fX1+4NAAAAAADckBvQAAAAAAAkBGgAAAAAABICNAAAAAAACQEaAAAAAICEAA0AAAAAQEKABgAAAAAgIUADAAAAAJAQoAEAAAAASAjQAAAAAAAkBGgAAAAAABICNAAAAAAACQEaAAAAAICEAA0AAAAAQEKABgAAAAAgIUADAAAAAJAQoAEAAAAASAjQAAAAAAAkBGgAAAAAABICNAAAAAAACQEaAAAAAICEAA0AAAAAQEKABgAAAAAgIUADAAAAAJAQoAEAAAAASAjQAAAAAAAkBGgAAAAAABICNAAAAAAACQEaAAAAAICEAA0AAAAAQEKABgAAAAAgIUADAAAAAJAQoAEAAAAASAjQAAAAAAAkBGgAAAAAABICNAAAAAAACQEaAAAAAICEAA0AAAAAQEKABgAAAAAgIUADAAAAAJAQoAEAAAAASAjQAAAAAAAkBGgAAAAAABICNAAAAAAACQEaAAAAAICEAA0AAAAAQEKABgAAAAAgIUADAAAAAJAQoAEAAAAASAjQAAAAAAAkBGgAAAAAABICNAAAAAAACQEaAAAAAICEAA0AAAAAQEKABgAAAAAgIUADAAAAAJAQoAEAAAAASAjQAAAAAAAkBGgAAAAAABICNAAAAAAAiW+Vl8INx/1QhAAAAABJRU5ErkJggg==;" vertex="1" parent="1">
          <mxGeometry x="50" y="55" width="231.11" height="130" as="geometry" />
        </mxCell>
        <mxCell id="uTqR0olXZD3r0W3IPvJW-4" value="" style="shape=image;verticalLabelPosition=bottom;labelBackgroundColor=default;verticalAlign=top;aspect=fixed;imageAspect=0;image=data:image/png,iVBORw0KGgoAAAANSUhEUgAABVYAAAMACAIAAABAXKuVAAAAA3NCSVQICAjb4U/gAAAAGXRFWHRTb2Z0d2FyZQBnbm9tZS1zY3JlZW5zaG907wO/PgAAElFJREFUeJzt2lFuIkcYRtFpF5vw/tdZUhYQD0RpNz9wz3kN0/ncKni4quP7+/sPAAAA8Om+pgcAAAAAzyABAAAAQIIEAAAAAAkSAAAAACRIAAAAAJAgAQAAAECCBAAAAAAJEgAAAAAkSAAAAACQIAEAAABAggQAAAAACRIAAAAAJEgAAAAAkCABAAAAQIIEAAAAAAkSAAAAACRIAAAAAJAgAQAAAECCBAAAAAAJEgAAAAAkSAAAAACQIAEAAABAggQAAAAACRIAAAAAJEgAAAAAkCABAAAAQIIEAAAAAAkSAAAAACRIAAAAAJAgAQAAAECCBAAAAAAJEgAAAAAkSAAAAACQIAEAAABAggQAAAAACRIAAAAAJEgAAAAAkCABAAAAQIIEAAAAAAkSAAAAACRIAAAAAJAgAQAAAAAAAAAAAAAAAAAAAAAAAAAAAAAAAAAAAAAAAAAAAAAAAAAAAAAAAAAAAAAAAAAAAAAAAAAAAAAAAAAAAAAAAAAAAAAAAAAAAAAAAAAAAAAAAAAAAAAAAAAAAAAAAAAAAAAAAAAAAAAAAAAAAAAAAAAAAAAAAAAAAAAAAAAAAAAAAAAAAAAAAAAAAAAAAAAAAAAAAAAAAAAAAAAAAAAAAAAAAAAAAAAAAAAAAAAAAAAAAAAAAAAAAAAAAAAAAAAAAAAAAAAAAAAAAAAAAAAAAAAAAAAAAAAAAAAAAAAAAAAAAAAAAAAAAAAAAAAAAAAAAAAAAAAAAAAAAAAAAAAAAAAAAAAAAAAAAAAAAAAAAAAAAAAAAAAAAAAAAAAAAAAAAAAAAAAAAAAAAAAAAAAAAAAAAAAAAAAAAAAAAAAAAAAAAAAAAAAAAAAAAAAAAAAAAAAAcI1j7z29AQAAADhrrXX/A1/P2QEAAADMkgAAAAAgQQIAAACABAkAAAAAEiQAAAAASJAAAAAAIEECAAAAgAQJAAAAABIkAAAAAEiQAAAAAAAAAAAAAAAAAAAAAAAAAAAAAAAAAAAAAAAAAAAAAAAAAAAAAAAAAAAAAAAAeBfH9ACA/2/vfee/rrWetuRH9+edd/UfaP994wcMznjx38+P5/0DU76mBwAAAADPIAEAAABAggQAAAAACRIAAAAAJEgAAAAAkCABAAAAQIIEAAAAAAkSAAAAACRIAAAAAJBwmx4Ab2zvff8Da63nLPlUD9/wrPEDcHKA/SeND4AznE+AJrcAAAAAIEECAAAAgAQJAAAAABIkAAAAAEiQAAAAACBBAgAAAIAECQAAAAASJAAAAABIkAAAAAAgQQIAAACAhNv0AIC/Wmvd/8De+zlLRrz7X2f/Z3v4fq7+/j58/klXH4AX3z8+78XPz9XH4/zzX/wPfOjqEwhlbgEAAABAggQAAAAACRIAAAAAJEgAAAAAkCABAAAAQIIEAAAAAAkSAAAAACRIAAAAAJAgAQAAAECCBAAAAAAJt+kBMGnv/crPX2v91hJe0/0T8vAAXH2AH7L/V+d8mofv5+RP3MnnXz3voasHvPsBfvHzc/54nPz9ufT//oQBwCC3AAAAACBBAgAAAIAECQAAAAASJAAAAABIkAAAAAAgQQIAAACABAkAAAAAEiQAAAAASJAAAAAAIOE2PQAmrbXO/PO996XP5929+wmxH5ji63mph6/34e/n1QOA67gFAAAAAAkSAAAAACRIAAAAAJAgAQAAAECCBAAAAAAJEgAAAAAkSAAAAACQIAEAAABAggQAAAAACRIAAAAAJNymBwB8rLXW9IRT7OeMh+9/733p8+GDPfz6nPyCXP39uno/cIdbAAAAAJAgAQAAAECCBAAAAAAJEgAAAAAkSAAAAACQIAEAAABAggQAAAAACRIAAAAAJEgAAAAAkCABAAAAQMIxPQDgr/belz5/rXXp8+2/z/639vD1vvv7effz8+L7x8/P+ID7rp539fF46N1/H+CtuQUAAAAACRIAAAAAJEgAAAAAkCABAAAAQIIEAAAAAAkSAAAAACRIAAAAAJAgAQAAAECCBAAAAAAJx/QAAOD97L3vf2Ct9ZwlAMB/5xYAAAAAJEgAAAAAkCABAAAAQIIEAAAAAAkSAAAAACRIAAAAAJAgAQAAAECCBAAAAAAJEgAAAAAkSAAAAACQcOy9pzcAAAAAZ6217n/ALQAAAABIkAAAAAAgQQIAAACABAkAAAAAEiQAAAAASJAAAAAAIEECAAAAgAQJAAAAABIkAAAAAEiQAAAAAAAAAAAAAAAAAAAAAAAAAAAAAAAAAAAAAAAAAAAAAAAAAAAAAAAAAAAAAAAAAAAAAAAAAAAAAAAAAAAAAAAAAAAAAAAAAAAAAAAAAAAAAAAAAAAAAAAAAAAAAAAAAAAAAAAAAAAAAAAAAAAAAAAAAAAAAAAAAAAAAAAAAAAAAAAAAAAAAAAAAAAAAAAAAAAAAAAAAAAAAAAAAAAAAAAAAAAAAAAAAAAAAAAAAAAAAAAAAAAAAAAAAAAAAAAAAAAAAAAAAAAAAAAAAAAAAAAAAAAAAAAAAAAAAAAAAAAAAAAAAAAAAAAAAAAAAAAAAAAAAAAAAAAAAAAAAAAAAAAAAAAAAAAAAAAAAAAAAAAAAAAAAAAAAAAAAAAAAAAAAAAAAAAAAAAAAAAAAAAAAAAAAAAAAAAAAAAAAAAAAAAAAAAAAAAAAAAAAAAAAAAAAAAAAAAAAAAAAAAAAAAAAAAAAAAAAAAAAAAAAAAAAAAAAAAAAAAAAAAAAAAAAAAAAAD+6pgeAACvaO89PYFJa63pCQDw+76mBwAAAADPIAEAAABAggQAAAAACRIAAAAAJEgAAAAAkCABAAAAQIIEAAAAAAkSAAAAACRIAAAAAJAgAQAAAECCBAAAAAAJEgAAAAAkSAAAAACQIAEAAABAggQAAAAACRIAAAAAJEgAAAAAkCABAAAAQIIEAAAAAAkSAAAAACQc0wMA4BJ77+kJdK21picAwA/cAgAAAIAECQAAAAASJAAAAABIkAAAAAAgQQIAAACABAkAAAAAEiQAAAAASJAAAAAAIEECAAAAgAQJAAAAABIkAAAAAEiQAAAAACBBAgAAAIAECQAAAAASJAAAAABIkAAAAAAgQQIAAACABAkAAAAAEiQAAAAASJAAAAAAIOGYHgAAP9t7T0+AMWut6QkAfCC3AAAAACBBAgAAAIAECQAAAAASJAAAAABIkAAAAAAgQQIAAACABAkAAAAAEiQAAAAASJAAAAAAIEECAAAAgAQJAAAAABIkAAAAAEiQAAAAACBBAgAAAIAECQAAAAASJAAAAABIkAAAAAAgQQIAAACABAkAAAAAEiQAAAAASJAAAAAAIOGYHgDAZ9p7T08YttY688/jL/Dk2/vjBZ5+gQB8JLcAAAAAIEECAAAAgAQJAAAAABIkAAAAAEiQAAAAACBBAgAAAIAECQAAAAASJAAAAABIkAAAAAAgQQIAAACABAkAAAAAEiQAAAAASJAAAAAAIEECAAAAgAQJAAAAABIkAAAAAEiQAAAAACBBAgAAAIAECQAAAAASJAAAAABIkAAAAAAgQQIAAACABAkAAAAAEiQAAAAASJAAAAAAIEECAAAAgAQJAAAAABIkAAAAAEiQAAAAACBBAgAAAIAECQAAAAASJAAAAABIkAAAAAAgQQIAAACABAkAAAAAEiQAAAAASJAAAAAAIEECAAAAgAQJAAAAABIkAAAAAEiQAAAAACBBAgAAAIAECQAAAAASJAAAAABIkAAAAAAgQQIAAACABAkAAAAAEiQAAAAASJAAAAAAIEECAAAAgAQJAAAAABIkAAAAAEiQAAAAACBBAgAAAIAECQAAAAASJAAAAABIkAAAAAAgQQIAAACABAkAAAAAEiQAAAAASJAAAAAAIEECAAAAgAQJAAAAABKO6QEAfKa99/QE6FprTU8A4BW5BQAAAAAJEgAAAAAkSAAAAACQIAEAAABAggQAAAAACRIAAAAAJEgAAAAAkCABAAAAQIIEAAAAAAkSAAAAACRIAAAAAJAgAQAAAECCBAAAAAAJEgAAAAAkSAAAAACQIAEAAABAggQAAAAACRIAAAAAJEgAAAAAkCABAAAAQIIEAAAAAAkSAAAAACRIAAAAAJAgAQAAAECCBAAAAAAJEgAAAAAkSAAAAACQIAEAAABAggQAAAAACRIAAAAAJEgAAAAAkCABAAAAQIIEAAAAAAkSAAAAACRIAAAAAJAgAQAAAECCBAAAAAAJEgAAAAAkSAAAAACQIAEAAABAggQAAAAACRIAAAAAJNymBwDAJdZa0xPo2ntPTwCAH7gFAAAAAAkSAAAAACRIAAAAAJAgAQAAAECCBAAAAAAJEgAAAAAkSAAAAACQIAEAAABAggQAAAAACRIAAAAAJEgAAAAAkCABAAAAQIIEAAAAAAkSAAAAACRIAAAAAJAgAQAAAECCBAAAAAAJEgAAAAAkSAAAAACQIAEAAABAwm16AAB8pr339IS0tdb0BAB4OW4BAAAAQIIEAAAAAAkSAAAAACRIAAAAAJAgAQAAAECCBAAAAAAJEgAAAAAkSAAAAACQIAEAAABAggQAAAAACRIAAAAAJEgAAAAAkCABAAAAQIIEAAAAAAkSAAAAACRIAAAAAJAgAQAAAECCBAAAAAAJEgAAAAAkSAAAAACQcEwPAOAz7b2nJ5yy1pqewCQHGICP5BYAAAAAJEgAAAAAkCABAAAAQIIEAAAAAAkSAAAAACRIAAAAAJAgAQAAAECCBAAAAAAJEgAAAAAkSAAAAACQIAEAAABAggQAAAAACRIAAAAAJEgAAAAAkCABAAAAQIIEAAAAAAkSAAAAACRIAAAAAJAgAQAAAECCBAAAAAAJEgAAAAAkHNMDAOBne+/pCaestaYnpDk/APBvbgEAAABAggQAAAAACRIAAAAAJEgAAAAAkCABAAAAQIIEAAAAAAkSAAAAACRIAAAAAJAgAQAAAECCBAAAAAAJEgAAAAAkSAAAAACQIAEAAABAggQAAAAACRIAAAAAJEgAAAAAkCABAAAAQIIEAAAAAAkSAAAAACRIAAAAAJBwTA8AgEvsvacn0LXWmp4AAD9wCwAAAAASJAAAAABIkAAAAAAgQQIAAACABAkAAAAAEiQAAAAASJAAAAAAIEECAAAAgAQJAAAAABIkAAAAAEiQAAAAACBBAgAAAIAECQAAAAASJAAAAABIkAAAAAAgQQIAAACABAkAAAAAEiQAAAAASJAAAAAAIEECAAAAgIRjegAAvKK99/QEJq21picAwO9zCwAAAAASJAAAAABIkAAAAAAgQQIAAACABAkAAAAAEiQAAAAASJAAAAAAIEECAAAAgAQJAAAAABIkAAAAAEiQAAAAACBBAgAAAIAECQAAAAASJAAAAABIkAAAAAAgQQIAAACABAkAAAAAEiQAAAAASJAAAAAAIEECAAAAgAQJAAAAAAAAAAAAAAAAAAAAAAAAAAAAAAAAAAAAAAAAAAAAAAAAAAAAAAAAAAAAAAAAAAAAAAAAAAAAAAAAAAAAAAAAAAAAAAAAAAAAAAAAAAAAAAAAAAAAAAAAAAAAAAAAAAAAAAAAAAAAAAAAAAAAAAAAAAAAAAAAAAAAAAAAAAAAAAAAAAAAAAAAAAAAAAAAAAAAAAAAAAAAAAAAAAAAAAAAAAAAAAAAAAAAAAAAAAAAAAAAAAAAAAAAAAAAAAAAAAAAAAAAAAAAAAAAAAAAAAAAAAAAAAAAAAAAAAAAAAAAAAAAAAAAAAAAAAAAAAAAAAAAAAAAAAAAAAAAAAAAAAAAAAAAAAAAAAAAAAAAAAAAAAAAAAAAAAAAAAAAAAAAAAAAAAAAAAAAAAAAAAAAAAAAAAAAAAAAAAAAAAAAAAAAAAAAAAAAAAAAAAAAAAAAAAAAAACAaxzf39/TGwAAAIDLfU0PAAAAAJ5BAgAAAIAECQAAAAASJAAAAABIkAAAAAAgQQIAAACABAkAAAAAEiQAAAAASJAAAAAAIEECAAAAgAQJAAAAABIkAAAAAEiQAAAAACBBAgAAAIAECQAAAAASJAAAAABIkAAAAAAgQQIAAACABAkAAAAAEiQAAAAASJAAAAAAIEECAAAAgAQJAAAAABIkAAAAAEiQAAAAACBBAgAAAIAECQAAAAASJAAAAABIkAAAAAAgQQIAAACABAkAAAAAEiQAAAAASJAAAAAAIEECAAAAgAQJAAAAABIkAAAAAEiQAAAAACBBAgAAAIAECQAAAAASJAAAAABIkAAAAAAg4R+hxfd0WKZ8UQAAAABJRU5ErkJggg==;" vertex="1" parent="1">
          <mxGeometry x="680" y="55" width="231.22" height="130" as="geometry" />
        </mxCell>
      </root>
    </mxGraphModel>
  </diagram>
</mxfile>
